<?xml version="1.0" encoding="UTF-8" standalone="no"?>
<svg width="100px" height="100px" viewBox="0 0 100 100" version="1.1" xmlns="http://www.w3.org/2000/svg" xmlns:xlink="http://www.w3.org/1999/xlink" xmlns:sketch="http://www.bohemiancoding.com/sketch/ns">
    <!-- Generator: Sketch 3.2.2 (9983) - http://www.bohemiancoding.com/sketch -->
    <title>ghost</title>
    <desc>Created with Sketch.</desc>
    <defs></defs>
    <g id="Icons" stroke="none" stroke-width="1" fill="none" fill-rule="evenodd" sketch:type="MSPage">
        <g id="ghost" sketch:type="MSArtboardGroup" stroke="#1A1918" stroke-width="4" stroke-linecap="round" stroke-linejoin="round">
            <path d="M73.2216175,38.0126663 C73.0859219,15.5879383 57.2704276,13.7213976 56.7972328,13.6234348 C39.1585465,9.99531362 31.5039238,22.7304739 28.4577319,38.1263731 C25.8151473,37.2219668 8.41827754,31.3511979 7.28226194,33.3069546 C6.05926199,35.4166529 8.15036574,39.9736711 26.9250676,50.399709 C25.8986523,66.4551075 28.1689438,81.5973531 28.1689438,81.5973531 C28.1689438,81.5973531 28.3220363,82.6294609 28.9326664,83.6930567 C31.9823377,81.3734382 35.409521,80.0754315 39.2403118,79.6853297 C43.0693628,79.295228 47.7526001,84.5012496 51.0145132,85.1712449 C54.2764263,85.8429897 58.5038657,81.7635399 63.0966393,82.2376098 C67.6876732,82.7099303 67.9399279,86.6511825 74.37503,87.8564745 C80.8083924,89.0635158 87.7062513,82.2341111 85.2933055,83.1507628 C83.1239158,83.976449 73.0372107,72.8016957 72.7292861,50.8160507 C90.8916182,40.6506638 92.9270519,36.174115 91.7179695,34.0889075 C90.7889766,32.4865164 78.9243114,36.1443763 73.2216175,38.0126663 Z" id="Imported-Layers" sketch:type="MSShapeGroup"></path>
        </g>
    </g>
</svg>