<?xml version="1.0" encoding="UTF-8" standalone="no"?>
<svg width="100px" height="100px" viewBox="0 0 100 100" version="1.1" xmlns="http://www.w3.org/2000/svg" xmlns:xlink="http://www.w3.org/1999/xlink" xmlns:sketch="http://www.bohemiancoding.com/sketch/ns">
    <!-- Generator: Sketch 3.2.2 (9983) - http://www.bohemiancoding.com/sketch -->
    <title>ice</title>
    <desc>Created with Sketch.</desc>
    <defs></defs>
    <g id="Icons" stroke="none" stroke-width="1" fill="none" fill-rule="evenodd" sketch:type="MSPage">
        <g id="ice" sketch:type="MSArtboardGroup" stroke="#1A1918" stroke-width="4" stroke-linecap="round" stroke-linejoin="round">
            <path d="M16.9426087,34.0507812 L82.688,66.0976562 M82.2137391,55.4257812 L70.4448696,60.1054687 M72.6737391,71.7132812 L70.4448696,60.1054687 M17.182087,44.5773437 L28.997913,40.0007812 M26.8895652,28.3726562 L28.997913,40.0007812 M83.0573913,34.0070313 L17.3104348,66.0539063 M17.7862609,55.3835937 L29.5535652,60.0617187 M27.3246957,71.6710937 L29.5535652,60.0617187 M82.8163478,44.5335937 L71.0005217,39.9570312 M73.1104348,28.3289062 L71.0005217,39.9570312 M50.1173913,15.7945312 L50.0986087,84.2054687 M40.0671304,78.8195312 L50.0798261,71.4554687 M60.1895652,78.7054687 L50.0798261,71.4554687 M60.1191304,20.9226562 L50.1831304,28.3726562 M39.9998261,21.2117187 L50.1831304,28.3726562" id="Imported-Layers" sketch:type="MSShapeGroup"></path>
        </g>
    </g>
</svg>