<?xml version="1.0" encoding="UTF-8" standalone="no"?>
<svg width="100px" height="100px" viewBox="0 0 100 100" version="1.1" xmlns="http://www.w3.org/2000/svg" xmlns:xlink="http://www.w3.org/1999/xlink" xmlns:sketch="http://www.bohemiancoding.com/sketch/ns">
    <!-- Generator: Sketch 3.3.3 (12081) - http://www.bohemiancoding.com/sketch -->
    <title>ground</title>
    <desc>Created with Sketch.</desc>
    <defs></defs>
    <g id="Icons" stroke="none" stroke-width="1" fill="none" fill-rule="evenodd" sketch:type="MSPage">
        <g id="ground" sketch:type="MSArtboardGroup">
            <path d="M86.2106707,50.7480964 C86.2106707,71.0986988 69.732622,87.5952771 49.4057927,87.5952771 C29.0789634,87.5952771 12.6,71.0986988 12.6,50.7480964 C12.6,30.3984096 29.0789634,13.9018313 49.4057927,13.9018313 C69.732622,13.9018313 86.2106707,30.3984096 86.2106707,50.7480964 L86.2106707,50.7480964 Z" id="Stroke-2" stroke="#98A6AD" stroke-width="4" sketch:type="MSShapeGroup"></path>
            <path d="M12.6,48.9167711 C12.6,48.9167711 20.3496951,43.1847229 27.8890244,48.9167711 C27.8890244,49.2171084 34.660061,54.4519518 42.3320122,48.9167711" id="Stroke-6" stroke="#98A6AD" stroke-width="4" sketch:type="MSShapeGroup"></path>
            <path d="M42.3320122,48.9268434 C42.3320122,48.9268434 50.0817073,43.1947952 57.6210366,48.9268434 C57.6210366,49.2271807 64.3911585,54.4620241 72.0640244,48.9268434" id="Stroke-8" stroke="#98A6AD" stroke-width="4" sketch:type="MSShapeGroup"></path>
            <path d="M71.3679878,49.383759 C71.3679878,49.383759 79.1176829,43.6507952 86.6570122,49.383759" id="Stroke-10" stroke="#98A6AD" stroke-width="4" stroke-linejoin="round" sketch:type="MSShapeGroup"></path>
            <g id="dirt" sketch:type="MSLayerGroup" transform="translate(23.000000, 55.000000)" fill="#98A6AD">
                <path d="M3.04085366,1.25636145 C3.04085366,1.93944578 2.4875,2.49250602 1.80609756,2.49250602 C1.12378049,2.49250602 0.571341463,1.93944578 0.571341463,1.25636145 C0.571341463,0.574192771 1.12378049,0.0202168675 1.80609756,0.0202168675 C2.4875,0.0202168675 3.04085366,0.574192771 3.04085366,1.25636145" id="Fill-11" sketch:type="MSShapeGroup"></path>
                <path d="M3.0847561,6.75125301 C3.0847561,7.43342169 2.53140244,7.98739759 1.85,7.98739759 C1.16768293,7.98739759 0.614329268,7.43342169 0.614329268,6.75125301 C0.614329268,6.06816867 1.16768293,5.51510843 1.85,5.51510843 C2.53140244,5.51510843 3.0847561,6.06816867 3.0847561,6.75125301" id="Fill-12" sketch:type="MSShapeGroup"></path>
                <path d="M3.0847561,12.2452289 C3.0847561,12.9273976 2.53140244,13.4813735 1.85,13.4813735 C1.16768293,13.4813735 0.614329268,12.9273976 0.614329268,12.2452289 C0.614329268,11.5621446 1.16768293,11.0090843 1.85,11.0090843 C2.53140244,11.0090843 3.0847561,11.5621446 3.0847561,12.2452289" id="Fill-13" sketch:type="MSShapeGroup"></path>
                <path d="M10.2929878,1.28016867 C10.2929878,1.96325301 9.74054878,2.51722892 9.05823171,2.51722892 C8.37591463,2.51722892 7.82347561,1.96325301 7.82347561,1.28016867 C7.82347561,0.598 8.37591463,0.0440240964 9.05823171,0.0440240964 C9.74054878,0.0440240964 10.2929878,0.598 10.2929878,1.28016867" id="Fill-14" sketch:type="MSShapeGroup"></path>
                <path d="M10.3368902,6.77506024 C10.3368902,7.45814458 9.78445122,8.01120482 9.10213415,8.01120482 C8.41981707,8.01120482 7.86737805,7.45814458 7.86737805,6.77506024 C7.86737805,6.0919759 8.41981707,5.53891566 9.10213415,5.53891566 C9.78445122,5.53891566 10.3368902,6.0919759 10.3368902,6.77506024" id="Fill-15" sketch:type="MSShapeGroup"></path>
                <path d="M10.3368902,12.2690361 C10.3368902,12.9521205 9.78445122,13.5051807 9.10213415,13.5051807 C8.41981707,13.5051807 7.86737805,12.9521205 7.86737805,12.2690361 C7.86737805,11.5859518 8.41981707,11.0328916 9.10213415,11.0328916 C9.78445122,11.0328916 10.3368902,11.5859518 10.3368902,12.2690361" id="Fill-16" sketch:type="MSShapeGroup"></path>
                <path d="M10.3368902,17.763012 C10.3368902,18.4460964 9.78445122,18.9991566 9.10213415,18.9991566 C8.41981707,18.9991566 7.86737805,18.4460964 7.86737805,17.763012 C7.86737805,17.0799277 8.41981707,16.5268675 9.10213415,16.5268675 C9.78445122,16.5268675 10.3368902,17.0799277 10.3368902,17.763012" id="Fill-17" sketch:type="MSShapeGroup"></path>
                <path d="M17.610061,1.28016867 C17.610061,1.96325301 17.057622,2.51722892 16.3753049,2.51722892 C15.6939024,2.51722892 15.1405488,1.96325301 15.1405488,1.28016867 C15.1405488,0.598 15.6939024,0.0440240964 16.3753049,0.0440240964 C17.057622,0.0440240964 17.610061,0.598 17.610061,1.28016867" id="Fill-19" sketch:type="MSShapeGroup"></path>
                <path d="M17.6539634,6.77506024 C17.6539634,7.45814458 17.1015244,8.01120482 16.4192073,8.01120482 C15.7368902,8.01120482 15.1844512,7.45814458 15.1844512,6.77506024 C15.1844512,6.0919759 15.7368902,5.53891566 16.4192073,5.53891566 C17.1015244,5.53891566 17.6539634,6.0919759 17.6539634,6.77506024" id="Fill-20" sketch:type="MSShapeGroup"></path>
                <path d="M17.6539634,12.2690361 C17.6539634,12.9521205 17.1015244,13.5051807 16.4192073,13.5051807 C15.7368902,13.5051807 15.1844512,12.9521205 15.1844512,12.2690361 C15.1844512,11.5859518 15.7368902,11.0328916 16.4192073,11.0328916 C17.1015244,11.0328916 17.6539634,11.5859518 17.6539634,12.2690361" id="Fill-21" sketch:type="MSShapeGroup"></path>
                <path d="M17.6539634,17.763012 C17.6539634,18.4460964 17.1015244,18.9991566 16.4192073,18.9991566 C15.7368902,18.9991566 15.1844512,18.4460964 15.1844512,17.763012 C15.1844512,17.0799277 15.7368902,16.5268675 16.4192073,16.5268675 C17.1015244,16.5268675 17.6539634,17.0799277 17.6539634,17.763012" id="Fill-22" sketch:type="MSShapeGroup"></path>
                <path d="M17.6539634,23.256988 C17.6539634,23.9400723 17.1015244,24.4931325 16.4192073,24.4931325 C15.7368902,24.4931325 15.1844512,23.9400723 15.1844512,23.256988 C15.1844512,22.5739036 15.7368902,22.0208434 16.4192073,22.0208434 C17.1015244,22.0208434 17.6539634,22.5739036 17.6539634,23.256988" id="Fill-23" sketch:type="MSShapeGroup"></path>
                <path d="M24.9271341,1.28016867 C24.9271341,1.96325301 24.3746951,2.51722892 23.692378,2.51722892 C23.0109756,2.51722892 22.457622,1.96325301 22.457622,1.28016867 C22.457622,0.598 23.0109756,0.0440240964 23.692378,0.0440240964 C24.3746951,0.0440240964 24.9271341,0.598 24.9271341,1.28016867" id="Fill-24" sketch:type="MSShapeGroup"></path>
                <path d="M24.9710366,6.77506024 C24.9710366,7.45814458 24.4185976,8.01120482 23.7362805,8.01120482 C23.0539634,8.01120482 22.5015244,7.45814458 22.5015244,6.77506024 C22.5015244,6.0919759 23.0539634,5.53891566 23.7362805,5.53891566 C24.4185976,5.53891566 24.9710366,6.0919759 24.9710366,6.77506024" id="Fill-25" sketch:type="MSShapeGroup"></path>
                <path d="M24.9710366,12.2566747 C24.9710366,12.939759 24.4185976,13.4928193 23.7362805,13.4928193 C23.0539634,13.4928193 22.5015244,12.939759 22.5015244,12.2566747 C22.5015244,11.5735904 23.0539634,11.0205301 23.7362805,11.0205301 C24.4185976,11.0205301 24.9710366,11.5735904 24.9710366,12.2566747" id="Fill-26" sketch:type="MSShapeGroup"></path>
                <path d="M24.9710366,17.763012 C24.9710366,18.4460964 24.4185976,18.9991566 23.7362805,18.9991566 C23.0539634,18.9991566 22.5015244,18.4460964 22.5015244,17.763012 C22.5015244,17.0799277 23.0539634,16.5268675 23.7362805,16.5268675 C24.4185976,16.5268675 24.9710366,17.0799277 24.9710366,17.763012" id="Fill-27" sketch:type="MSShapeGroup"></path>
                <path d="M24.9710366,23.256988 C24.9710366,23.9400723 24.4185976,24.4931325 23.7362805,24.4931325 C23.0539634,24.4931325 22.5015244,23.9400723 22.5015244,23.256988 C22.5015244,22.5739036 23.0539634,22.0208434 23.7362805,22.0208434 C24.4185976,22.0208434 24.9710366,22.5739036 24.9710366,23.256988" id="Fill-28" sketch:type="MSShapeGroup"></path>
                <path d="M32.2442073,1.28016867 C32.2442073,1.96325301 31.6917683,2.51722892 31.0094512,2.51722892 C30.3271341,2.51722892 29.7746951,1.96325301 29.7746951,1.28016867 C29.7746951,0.598 30.3271341,0.0440240964 31.0094512,0.0440240964 C31.6917683,0.0440240964 32.2442073,0.598 32.2442073,1.28016867" id="Fill-29" sketch:type="MSShapeGroup"></path>
                <path d="M32.2881098,6.77506024 C32.2881098,7.45814458 31.7356707,8.01120482 31.0533537,8.01120482 C30.3710366,8.01120482 29.8185976,7.45814458 29.8185976,6.77506024 C29.8185976,6.0919759 30.3710366,5.53891566 31.0533537,5.53891566 C31.7356707,5.53891566 32.2881098,6.0919759 32.2881098,6.77506024" id="Fill-30" sketch:type="MSShapeGroup"></path>
                <path d="M32.4484756,12.2566747 C32.4484756,12.939759 31.8960366,13.4928193 31.2137195,13.4928193 C30.5314024,13.4928193 29.9789634,12.939759 29.9789634,12.2566747 C29.9789634,11.5735904 30.5314024,11.0205301 31.2137195,11.0205301 C31.8960366,11.0205301 32.4484756,11.5735904 32.4484756,12.2566747" id="Fill-31" sketch:type="MSShapeGroup"></path>
                <path d="M32.2881098,17.763012 C32.2881098,18.4460964 31.7356707,18.9991566 31.0533537,18.9991566 C30.3710366,18.9991566 29.8185976,18.4460964 29.8185976,17.763012 C29.8185976,17.0799277 30.3710366,16.5268675 31.0533537,16.5268675 C31.7356707,16.5268675 32.2881098,17.0799277 32.2881098,17.763012" id="Fill-32" sketch:type="MSShapeGroup"></path>
                <path d="M32.2881098,23.256988 C32.2881098,23.9400723 31.7356707,24.4931325 31.0533537,24.4931325 C30.3710366,24.4931325 29.8185976,23.9400723 29.8185976,23.256988 C29.8185976,22.5739036 30.3710366,22.0208434 31.0533537,22.0208434 C31.7356707,22.0208434 32.2881098,22.5739036 32.2881098,23.256988" id="Fill-33" sketch:type="MSShapeGroup"></path>
                <path d="M39.5612805,1.28016867 C39.5612805,1.96325301 39.0088415,2.51722892 38.3265244,2.51722892 C37.645122,2.51722892 37.0917683,1.96325301 37.0917683,1.28016867 C37.0917683,0.598 37.645122,0.0440240964 38.3265244,0.0440240964 C39.0088415,0.0440240964 39.5612805,0.598 39.5612805,1.28016867" id="Fill-34" sketch:type="MSShapeGroup"></path>
                <path d="M39.6051829,6.77506024 C39.6051829,7.45814458 39.0527439,8.01120482 38.3704268,8.01120482 C37.6881098,8.01120482 37.1356707,7.45814458 37.1356707,6.77506024 C37.1356707,6.0919759 37.6881098,5.53891566 38.3704268,5.53891566 C39.0527439,5.53891566 39.6051829,6.0919759 39.6051829,6.77506024" id="Fill-35" sketch:type="MSShapeGroup"></path>
                <path d="M39.6051829,12.2690361 C39.6051829,12.9521205 39.0527439,13.5051807 38.3704268,13.5051807 C37.6881098,13.5051807 37.1356707,12.9521205 37.1356707,12.2690361 C37.1356707,11.5859518 37.6881098,11.0328916 38.3704268,11.0328916 C39.0527439,11.0328916 39.6051829,11.5859518 39.6051829,12.2690361" id="Fill-36" sketch:type="MSShapeGroup"></path>
                <path d="M39.6051829,17.763012 C39.6051829,18.4460964 39.0527439,18.9991566 38.3704268,18.9991566 C37.6881098,18.9991566 37.1356707,18.4460964 37.1356707,17.763012 C37.1356707,17.0799277 37.6881098,16.5268675 38.3704268,16.5268675 C39.0527439,16.5268675 39.6051829,17.0799277 39.6051829,17.763012" id="Fill-37" sketch:type="MSShapeGroup"></path>
                <path d="M39.6051829,23.256988 C39.6051829,23.9400723 39.0527439,24.4931325 38.3704268,24.4931325 C37.6881098,24.4931325 37.1356707,23.9400723 37.1356707,23.256988 C37.1356707,22.5739036 37.6881098,22.0208434 38.3704268,22.0208434 C39.0527439,22.0208434 39.6051829,22.5739036 39.6051829,23.256988" id="Fill-38" sketch:type="MSShapeGroup"></path>
                <path d="M46.8783537,1.28016867 C46.8783537,1.96325301 46.3259146,2.51722892 45.6435976,2.51722892 C44.9621951,2.51722892 44.4088415,1.96325301 44.4088415,1.28016867 C44.4088415,0.598 44.9621951,0.0440240964 45.6435976,0.0440240964 C46.3259146,0.0440240964 46.8783537,0.598 46.8783537,1.28016867" id="Fill-39" sketch:type="MSShapeGroup"></path>
                <path d="M46.9222561,6.77506024 C46.9222561,7.45814458 46.3698171,8.01120482 45.6875,8.01120482 C45.0051829,8.01120482 44.4527439,7.45814458 44.4527439,6.77506024 C44.4527439,6.0919759 45.0051829,5.53891566 45.6875,5.53891566 C46.3698171,5.53891566 46.9222561,6.0919759 46.9222561,6.77506024" id="Fill-40" sketch:type="MSShapeGroup"></path>
                <path d="M47.082622,12.2566747 C47.082622,12.939759 46.5301829,13.4928193 45.8478659,13.4928193 C45.1655488,13.4928193 44.6131098,12.939759 44.6131098,12.2566747 C44.6131098,11.5735904 45.1655488,11.0205301 45.8478659,11.0205301 C46.5301829,11.0205301 47.082622,11.5735904 47.082622,12.2566747" id="Fill-41" sketch:type="MSShapeGroup"></path>
                <path d="M46.9222561,17.763012 C46.9222561,18.4460964 46.3698171,18.9991566 45.6875,18.9991566 C45.0051829,18.9991566 44.4527439,18.4460964 44.4527439,17.763012 C44.4527439,17.0799277 45.0051829,16.5268675 45.6875,16.5268675 C46.3698171,16.5268675 46.9222561,17.0799277 46.9222561,17.763012" id="Fill-42" sketch:type="MSShapeGroup"></path>
                <path d="M54.1954268,1.28016867 C54.1954268,1.96325301 53.6429878,2.51722892 52.9606707,2.51722892 C52.2783537,2.51722892 51.7259146,1.96325301 51.7259146,1.28016867 C51.7259146,0.598 52.2783537,0.0440240964 52.9606707,0.0440240964 C53.6429878,0.0440240964 54.1954268,0.598 54.1954268,1.28016867" id="Fill-44" sketch:type="MSShapeGroup"></path>
                <path d="M54.2393293,6.77506024 C54.2393293,7.45814458 53.6868902,8.01120482 53.0045732,8.01120482 C52.3222561,8.01120482 51.7698171,7.45814458 51.7698171,6.77506024 C51.7698171,6.0919759 52.3222561,5.53891566 53.0045732,5.53891566 C53.6868902,5.53891566 54.2393293,6.0919759 54.2393293,6.77506024" id="Fill-45" sketch:type="MSShapeGroup"></path>
                <path d="M54.2393293,12.2690361 C54.2393293,12.9521205 53.6868902,13.5051807 53.0045732,13.5051807 C52.3222561,13.5051807 51.7698171,12.9521205 51.7698171,12.2690361 C51.7698171,11.5859518 52.3222561,11.0328916 53.0045732,11.0328916 C53.6868902,11.0328916 54.2393293,11.5859518 54.2393293,12.2690361" id="Fill-46" sketch:type="MSShapeGroup"></path>
            </g>
        </g>
    </g>
</svg>