<?xml version="1.0" encoding="UTF-8" standalone="no"?>
<svg width="100px" height="100px" viewBox="0 0 100 100" version="1.1" xmlns="http://www.w3.org/2000/svg" xmlns:xlink="http://www.w3.org/1999/xlink" xmlns:sketch="http://www.bohemiancoding.com/sketch/ns">
    <!-- Generator: Sketch 3.2.2 (9983) - http://www.bohemiancoding.com/sketch -->
    <title>dragon</title>
    <desc>Created with Sketch.</desc>
    <defs></defs>
    <g id="Icons" stroke="none" stroke-width="1" fill="none" fill-rule="evenodd" sketch:type="MSPage">
        <g id="dragon" sketch:type="MSArtboardGroup" stroke="#1A1918" stroke-width="4">
            <path d="M86.9628438,50.4666149 C86.9628438,71.1348713 70.2059672,87.891748 49.536047,87.891748 C28.8677906,87.891748 12.1125776,71.1348713 12.1125776,50.4666149 C12.1125776,29.7966948 28.8677906,13.0414818 49.536047,13.0414818 C70.2059672,13.0414818 86.9628438,29.7966948 86.9628438,50.4666149 L86.9628438,50.4666149 Z" id="Stroke-2" sketch:type="MSShapeGroup"></path>
            <path d="M53.3426131,63.1041482 C64.719055,61.0145297 64.2532165,48.4784827 64.2532165,48.4784827 C64.2532165,48.4784827 63.0936114,56.8369565 49.1633762,57.9965617 C48.4679459,58.4607365 44.5199645,57.9965617 41.5019965,62.6399734 C39.6452972,64.0324978 38.4840284,61.9428793 35.9302351,63.1041482 C33.3764419,64.265417 32.2168367,65.6579414 32.2168367,65.6579414 C32.2168367,65.6579414 33.8372893,70.8187666 35.9269077,71.514197 C35.9269077,71.514197 40.3423913,70.3013531 44.5199645,70.5342724 C48.6992014,70.765528 48.2350266,72.8551464 48.4679459,74.7118456 C48.4679459,74.7118456 47.5262866,86.3777728 42.1824534,87.1414153 M57.5085404,62.5800799 C57.5085404,62.5800799 58.4868012,80.7128438 61.4931233,83.7008651 M74.5083185,78.4069432 C74.5083185,78.4069432 80.6024845,38.9171473 55.7150621,25.9452085 C57.939441,25.8570319 62.501331,30.7716282 75.0839618,31.8613576 C75.4732697,31.7515528 79.2931455,40.4810337 84.6403061,40.9036158 M24.6785714,78.4701642 C24.6785714,78.4701642 18.5844055,38.9820319 43.4734916,26.0084295 C41.247449,25.9202529 36.6872227,30.8348492 24.1045918,31.9262422 C23.7136202,31.8147737 19.8954082,40.5442547 14.5482476,40.9668367" id="Stroke-3" stroke-linecap="round" stroke-linejoin="round" sketch:type="MSShapeGroup"></path>
        </g>
    </g>
</svg>