<?xml version="1.0" encoding="UTF-8" standalone="no"?>
<svg width="100px" height="100px" viewBox="0 0 100 100" version="1.1" xmlns="http://www.w3.org/2000/svg" xmlns:xlink="http://www.w3.org/1999/xlink" xmlns:sketch="http://www.bohemiancoding.com/sketch/ns">
    <!-- Generator: Sketch 3.2.2 (9983) - http://www.bohemiancoding.com/sketch -->
    <title>fighting</title>
    <desc>Created with Sketch.</desc>
    <defs></defs>
    <g id="Icons" stroke="none" stroke-width="1" fill="none" fill-rule="evenodd" sketch:type="MSPage">
        <g id="fighting" sketch:type="MSArtboardGroup" stroke="#1A1918" stroke-width="4" stroke-linecap="round" stroke-linejoin="round">
            <path d="M28.0041778,51.991064 C28.0041778,51.991064 50.6470719,62.9959836 46.6195494,38.9397251 C44.7713622,31.5182056 24.2800632,29.8166104 20.351365,38.9466562 C19.86938,39.5808556 17.7368562,63.8901008 34.4190865,71.483166 C34.6496765,71.3168186 63.2740396,80.5127103 73.9817359,64.7512951 C74.045885,64.3544873 89.1139855,40.5512154 71.3221494,19.7543261 C71.2580003,20.1511339 60.0076374,7.94539417 35.984671,15.4379579 C35.984671,15.4379579 24.8678075,19.9414669 25.4520843,33.8730608" id="Path" sketch:type="MSShapeGroup"></path>
            <path d="M33.5844768,71.8963378 C33.5844768,71.8963378 29.6282493,85.9781392 42.3016182,86.9467381 C42.3016182,86.9467381 65.7860817,89.7111334 69.7511519,82.8814508 C69.9403858,83.1023904 72.8620165,77.160001 69.0543465,70.5" id="Path" sketch:type="MSShapeGroup"></path>
            <path d="M48,46.854392 C48,46.854392 65.16032,51.7649988 74,34.5" id="Path" sketch:type="MSShapeGroup"></path>
            <path d="M67,44.332 C67,44.332 71.8749683,45.224 74,43.5" id="Path" sketch:type="MSShapeGroup"></path>
            <path d="M63,47.5 C63,47.5 66.3012478,49.276 68,49.116" id="Path" sketch:type="MSShapeGroup"></path>
        </g>
    </g>
</svg>