<?xml version="1.0" encoding="UTF-8" standalone="no"?>
<svg width="100px" height="100px" viewBox="0 0 100 100" version="1.1" xmlns="http://www.w3.org/2000/svg" xmlns:xlink="http://www.w3.org/1999/xlink" xmlns:sketch="http://www.bohemiancoding.com/sketch/ns">
    <!-- Generator: Sketch 3.2.2 (9983) - http://www.bohemiancoding.com/sketch -->
    <title>fire</title>
    <desc>Created with Sketch.</desc>
    <defs></defs>
    <g id="Icons" stroke="none" stroke-width="1" fill="none" fill-rule="evenodd" sketch:type="MSPage">
        <g id="fire" sketch:type="MSArtboardGroup" stroke="#1A1918" stroke-width="4">
            <g id="Imported-Layers" sketch:type="MSLayerGroup" transform="translate(14.000000, 14.000000)">
                <path d="M71.3562619,35.5994118 C71.3562619,55.2088235 55.4841429,71.1052941 35.9058571,71.1052941 C16.3275714,71.1052941 0.456333333,55.2088235 0.456333333,35.5994118 C0.456333333,15.99 16.3275714,0.0935294118 35.9058571,0.0935294118 C55.4841429,0.0935294118 71.3562619,15.99 71.3562619,35.5994118 L71.3562619,35.5994118 Z" id="Stroke-1" sketch:type="MSShapeGroup"></path>
                <path d="M39.5036667,12.0388235 C39.5036667,12.0388235 20.535,19.6694118 26.9870952,36.7994118 C31.2632381,45.9097059 45.8782381,43.5732353 45.7231905,32.2835294 C45.5672619,20.9929412 35.8494762,19.5132353 39.5036667,12.0388235 L39.5036667,12.0388235 Z M17.5785238,46.9958824 L53.7935952,55.8467647 L17.5785238,46.9958824 Z M18.019,55.8467647 L54.2331905,46.9958824 L18.019,55.8467647 Z" id="Stroke-2" stroke-linecap="round" stroke-linejoin="round" sketch:type="MSShapeGroup"></path>
            </g>
        </g>
    </g>
</svg>