<?xml version="1.0" encoding="UTF-8" standalone="no"?>
<svg width="100px" height="100px" viewBox="0 0 100 100" version="1.1" xmlns="http://www.w3.org/2000/svg" xmlns:xlink="http://www.w3.org/1999/xlink" xmlns:sketch="http://www.bohemiancoding.com/sketch/ns">
    <!-- Generator: Sketch 3.2.2 (9983) - http://www.bohemiancoding.com/sketch -->
    <title>grass</title>
    <desc>Created with Sketch.</desc>
    <defs></defs>
    <g id="Icons" stroke="none" stroke-width="1" fill="none" fill-rule="evenodd" sketch:type="MSPage">
        <g id="grass" sketch:type="MSArtboardGroup" stroke="#1A1918" stroke-width="4" stroke-linecap="round" stroke-linejoin="round">
            <path d="M50.8450226,88 C50.8450226,88 42.6546,69.1620487 47.5718889,49.9479429 C49.5263258,42.3039463 53.5566141,34.6011755 61,28" id="Path" sketch:type="MSShapeGroup"></path>
            <path d="M48.4328912,49.5 C48.4328912,49.5 55.9335823,41.5 64.4328912,41.5" id="Path" sketch:type="MSShapeGroup"></path>
            <path d="M46.4328912,65.5 C46.4328912,65.5 58.1511739,53.5 71.4328912,53.5" id="Path" sketch:type="MSShapeGroup"></path>
            <path d="M46,68.5 C46,68.5 40.0402539,52.6038899 28,47.5" id="Path" sketch:type="MSShapeGroup"></path>
            <path d="M47,51.5 C47,51.5 46.7518739,40.9925128 41,35.5" id="Path" sketch:type="MSShapeGroup"></path>
            <path d="M48.5898119,79.7161589 C48.5898119,79.7161589 25.2875987,86.2975002 18.2479147,61.3195754 C11.2082306,36.3416505 51.7331597,21.3957881 64.4328912,12.5" id="Path" sketch:type="MSShapeGroup"></path>
            <path d="M48.4328912,78.6117332 C47.4328912,78.6117332 63.4377565,91.4017686 77.7944028,70.5880777 C92.1527085,49.7743869 70.0730023,24.3271304 64.4328912,12.5" id="Path" sketch:type="MSShapeGroup"></path>
        </g>
    </g>
</svg>